<?xml version="1.0" standalone="no"?>
<!DOCTYPE svg PUBLIC "-//W3C//DTD SVG 20010904//EN"
 "http://www.w3.org/TR/2001/REC-SVG-20010904/DTD/svg10.dtd">
<svg version="1.0" xmlns="http://www.w3.org/2000/svg"
 width="800.000000pt" height="800.000000pt" viewBox="0 0 800.000000 800.000000"
 preserveAspectRatio="xMidYMid meet">

<g transform="translate(0.000000,800.000000) scale(0.100000,-0.100000)"
fill="#000000" stroke="none">
<path d="M4382 7056 c-12 -46 -22 -86 -22 -88 0 -3 24 -10 54 -17 94 -21 94 2
4 -331 -43 -162 -84 -300 -91 -307 -9 -10 -25 -9 -71 3 -32 8 -60 13 -62 11
-10 -9 -46 -158 -41 -164 3 -3 121 -36 261 -73 141 -38 265 -71 275 -75 17 -5
22 2 36 47 8 29 18 69 21 89 6 35 5 37 -28 43 -72 13 -74 18 -40 145 17 62 33
115 35 117 2 3 199 -46 244 -61 9 -3 3 -36 -18 -117 -17 -62 -34 -117 -39
-122 -5 -5 -28 -4 -55 4 -35 10 -49 10 -54 2 -12 -19 -44 -152 -38 -158 4 -5
110 -34 424 -117 l132 -35 17 56 c9 32 18 71 21 89 5 31 5 31 -51 44 -31 7
-61 18 -66 24 -10 12 140 599 158 617 6 6 29 4 63 -6 29 -9 58 -16 64 -16 11
0 60 159 51 167 -5 5 -559 153 -562 150 -3 -2 -44 -163 -44 -170 0 -3 18 -8
39 -12 71 -12 73 -17 44 -127 -14 -54 -31 -98 -37 -98 -15 0 -239 59 -244 65
-6 6 39 173 53 191 9 13 18 14 51 5 21 -6 44 -11 50 -11 11 0 59 158 51 166
-3 3 -123 36 -268 75 -145 38 -271 72 -279 74 -13 4 -21 -13 -38 -79z"/>
<path d="M3111 7030 c-188 -32 -345 -61 -348 -64 -9 -8 23 -171 33 -169 5 1
37 5 71 8 60 7 62 7 67 -16 16 -69 96 -559 96 -586 0 -33 2 -33 -92 -49 -43
-7 -43 -6 -24 -109 10 -59 15 -70 31 -69 30 3 579 96 583 99 6 5 -20 159 -27
168 -4 4 -33 2 -65 -4 -47 -8 -61 -8 -71 3 -12 13 -51 226 -42 234 2 2 41 10
86 16 69 10 83 10 96 -2 7 -8 21 -60 31 -115 20 -124 45 -185 95 -229 47 -43
106 -60 179 -52 124 13 217 72 239 153 12 43 13 129 3 188 -7 38 -10 40 -42
39 -19 0 -52 -4 -72 -8 l-38 -7 7 -75 c6 -71 5 -76 -13 -72 -16 3 -22 21 -36
103 -10 55 -23 112 -29 128 -13 32 -73 87 -94 87 -24 0 -18 13 21 44 68 54 93
161 59 257 -22 62 -56 101 -111 129 -41 20 -66 25 -149 27 -83 2 -157 -8 -444
-57z m373 -163 c41 -41 42 -133 3 -165 -16 -13 -136 -42 -178 -42 -24 0 -26 3
-41 102 -9 56 -15 104 -14 106 8 7 96 20 149 21 48 1 62 -3 81 -22z"/>
<path d="M1863 6584 l-422 -266 46 -71 c25 -40 47 -74 49 -76 2 -2 26 11 53
29 28 17 58 30 67 28 18 -3 344 -508 344 -532 0 -6 -25 -27 -55 -45 -30 -18
-55 -35 -55 -37 0 -2 21 -37 48 -77 l47 -74 425 269 c234 147 424 273 422 279
-2 7 -210 345 -226 366 -1 1 -37 -20 -79 -47 l-77 -49 37 -72 c43 -85 49 -143
18 -186 -19 -25 -198 -153 -216 -153 -4 0 -37 46 -73 102 l-65 103 30 18 c42
27 73 16 112 -42 l33 -49 72 45 72 45 -23 37 c-108 178 -234 371 -241 371 -13
0 -136 -81 -136 -89 0 -3 12 -24 25 -46 14 -22 25 -50 25 -63 0 -21 -43 -72
-60 -72 -6 0 -107 155 -118 181 -8 19 213 139 256 139 46 0 104 -45 153 -120
l16 -24 54 33 c30 18 65 41 78 50 l24 18 -108 172 c-59 94 -113 171 -119 171
-6 0 -201 -120 -433 -266z"/>
<path d="M5857 6491 c-213 -70 -386 -309 -387 -532 0 -245 218 -486 496 -546
155 -34 318 20 443 146 222 225 240 514 44 731 -70 77 -163 144 -256 183 -95
40 -248 48 -340 18z m352 -235 c15 -8 42 -31 60 -51 57 -65 39 -166 -55 -306
-61 -92 -155 -193 -210 -225 -112 -66 -244 4 -244 128 0 63 21 115 88 217 130
198 265 286 361 237z"/>
<path d="M1151 6040 c-66 -82 -121 -153 -121 -159 0 -5 30 -33 66 -62 l65 -52
30 37 c17 20 34 36 38 36 7 0 250 -317 274 -357 9 -15 3 -12 -233 95 -96 44
-176 85 -178 91 -2 6 10 27 27 47 l32 36 -67 54 c-37 30 -70 53 -74 52 -18 -7
-321 -391 -314 -397 5 -4 34 -28 66 -54 31 -26 59 -47 63 -47 4 0 16 11 27 25
23 30 55 31 117 6 39 -16 57 -35 147 -162 56 -79 98 -145 95 -147 -7 -2 -428
182 -438 192 -3 2 5 18 18 35 26 36 24 39 -57 102 -47 36 -57 40 -68 28 -11
-11 -258 -317 -287 -355 -8 -10 109 -114 129 -114 5 0 17 9 27 20 11 12 31 20
49 20 17 0 195 -70 405 -160 l374 -159 20 26 c11 14 53 66 94 116 40 49 73 94
73 98 0 5 -42 68 -94 141 -51 73 -91 134 -87 136 3 1 73 -27 154 -63 81 -36
149 -65 151 -65 2 0 47 53 99 119 l96 119 -239 321 c-131 176 -242 334 -248
350 -8 23 -6 35 9 60 10 17 19 33 19 35 0 7 -121 106 -130 106 -4 0 -62 -67
-129 -150z"/>
<path d="M6788 5907 c-37 -29 -67 -56 -68 -60 0 -5 16 -28 35 -51 19 -24 35
-50 35 -59 0 -8 -92 -87 -203 -176 -112 -88 -225 -183 -250 -211 -82 -91 -96
-191 -45 -317 52 -127 178 -277 278 -329 47 -24 67 -28 135 -29 111 0 151 21
383 203 257 202 235 190 265 155 14 -15 34 -39 45 -52 l19 -25 67 53 c36 29
66 56 66 60 0 11 -290 376 -299 376 -5 0 -38 -23 -74 -50 l-66 -51 40 -52 c22
-29 39 -57 37 -62 -5 -15 -397 -319 -439 -340 -72 -37 -132 -17 -191 65 -38
54 -45 101 -20 141 15 24 209 182 451 368 10 8 24 -2 61 -44 l47 -54 66 49
c36 28 66 54 67 58 0 7 -338 446 -369 479 -3 3 -36 -17 -73 -45z"/>
<path d="M3720 5403 c-118 -11 -291 -39 -389 -63 -100 -25 -118 -26 -145 -15
-128 53 -149 58 -180 46 -17 -7 -53 -18 -81 -26 -59 -15 -175 -71 -175 -84 0
-5 -15 -12 -34 -15 -51 -10 -70 -37 -63 -88 4 -24 9 -52 12 -63 5 -17 -9 -31
-77 -77 -287 -195 -554 -493 -701 -785 l-26 -51 -149 6 c-168 5 -237 -5 -272
-43 -45 -47 -22 -102 66 -160 251 -167 806 -225 840 -88 20 76 -87 155 -319
236 -16 6 -16 11 9 59 120 237 332 494 542 656 45 35 82 61 82 59 0 -2 -9 -30
-21 -63 -15 -43 -23 -100 -30 -209 -5 -82 -12 -172 -17 -200 -4 -27 -8 -105
-7 -172 0 -150 5 -158 132 -228 50 -27 103 -59 118 -69 36 -26 68 -10 93 48
11 24 30 49 42 56 26 14 73 5 116 -21 40 -24 86 -24 107 -1 21 23 21 37 0 73
-16 27 -16 30 -1 45 13 13 20 14 38 4 29 -16 35 -7 20 29 -25 61 8 91 120 111
76 14 103 26 80 34 -8 3 -33 9 -54 14 -54 11 -69 37 -36 62 57 45 129 64 243
64 92 1 107 3 107 17 0 9 -7 22 -15 29 -38 32 3 79 88 101 57 14 103 6 135
-23 l23 -23 33 39 c28 34 36 38 61 32 16 -4 46 -24 67 -45 33 -34 38 -45 38
-85 l0 -46 93 6 c131 9 265 -21 281 -62 5 -14 -1 -18 -63 -40 -20 -7 12 -40
47 -49 46 -11 56 -54 25 -106 -13 -22 -14 -32 -5 -41 9 -9 16 -7 32 7 11 10
20 24 20 30 0 7 11 20 25 29 26 17 26 18 20 114 -6 87 -4 100 14 129 11 18 38
41 60 52 48 25 55 43 46 132 -7 67 -6 70 22 97 l30 27 -20 45 c-11 25 -20 66
-21 92 l-1 47 -55 6 c-75 9 -107 22 -131 57 -27 38 -49 110 -42 138 6 23 5 23
98 -2 l40 -10 -29 -25 c-47 -40 -27 -57 71 -63 83 -5 113 -19 113 -51 0 -25
41 -50 78 -47 54 4 99 -53 137 -172 10 -30 23 -62 30 -70 28 -33 39 -69 46
-147 4 -46 17 -113 29 -149 48 -144 -6 -344 -106 -391 -48 -23 -108 -5 -122
37 l-11 29 -80 -2 c-44 -2 -83 -5 -86 -9 -4 -3 -1 -16 5 -28 10 -18 17 -20 54
-15 53 8 79 -4 96 -45 18 -43 -9 -138 -61 -218 -49 -76 -86 -106 -151 -129
-61 -22 -127 -89 -260 -268 -49 -66 -100 -134 -114 -152 -48 -63 -234 -133
-354 -133 -101 0 -257 51 -342 111 -17 12 -60 66 -95 121 -35 54 -68 98 -73
98 -20 0 -109 94 -124 130 -15 39 -17 40 -64 40 -73 0 -158 47 -222 121 -56
63 -90 77 -90 35 0 -56 166 -198 335 -288 125 -66 223 -163 245 -240 13 -48
-6 -97 -59 -153 -93 -96 -182 -253 -167 -292 10 -24 50 -10 65 22 32 71 104
175 150 219 56 51 66 52 147 15 72 -34 182 -164 208 -247 4 -12 21 -33 37 -47
56 -47 186 -27 210 32 33 80 100 213 127 249 17 23 47 54 67 69 30 23 39 26
59 17 33 -15 111 -136 148 -231 27 -69 35 -81 55 -81 16 0 23 6 23 19 0 18
-102 255 -160 373 -21 42 -22 49 -9 79 17 41 141 191 212 255 28 26 93 77 142
114 112 84 156 142 184 245 9 34 18 44 66 69 71 37 138 111 166 184 27 71 29
193 4 267 -9 28 -20 96 -24 152 -6 75 -14 112 -31 145 -12 23 -31 77 -41 118
-9 41 -27 96 -38 122 l-20 47 51 -30 c274 -162 520 -408 690 -689 62 -103 89
-158 80 -163 -4 -2 -32 -12 -62 -22 -83 -26 -190 -85 -232 -127 -70 -70 -40
-136 70 -159 71 -14 258 -7 362 15 325 70 541 221 434 305 -46 36 -98 44 -261
38 l-153 -5 -42 77 c-180 329 -455 618 -771 811 l-85 52 5 39 c7 48 -14 76
-63 85 -19 3 -34 10 -34 15 0 13 -116 69 -175 84 -27 8 -64 19 -81 26 -28 11
-38 10 -85 -10 -69 -30 -98 -30 -259 1 -74 15 -187 31 -250 37 -106 10 -367
12 -450 4z m-634 -108 c43 -104 -27 -161 -75 -61 -28 57 -27 94 2 105 30 12
56 -4 73 -44z m1692 11 c2 -15 -6 -47 -18 -71 -49 -100 -120 -45 -76 59 8 19
22 38 32 44 27 15 59 -1 62 -32z m-1821 -4 c16 -10 43 -76 43 -105 0 -45 -43
-62 -73 -29 -10 10 -24 40 -33 66 -13 37 -14 50 -4 61 13 16 47 20 67 7z
m1923 -7 c10 -11 9 -24 -4 -61 -9 -26 -23 -56 -33 -66 -30 -33 -73 -16 -73 29
0 29 27 95 43 105 20 13 54 9 67 -7z m-763 -26 c81 -6 193 -18 248 -27 l100
-17 5 -60 c8 -89 37 -132 144 -209 43 -32 70 -86 63 -125 -25 -132 -61 -269
-75 -284 -32 -36 -47 -38 -167 -17 -64 11 -141 20 -170 20 l-53 0 -31 55 c-31
54 -104 115 -139 115 -8 0 -32 16 -53 35 -54 49 -78 45 -149 -20 -19 -17 -53
-37 -75 -43 -68 -19 -133 -67 -156 -116 l-22 -44 -112 -4 c-95 -4 -120 -8
-164 -30 l-51 -25 0 38 c0 44 -33 90 -79 108 -16 7 -37 28 -47 46 -18 34 -18
36 0 89 15 42 18 71 13 121 -6 59 -4 68 15 83 104 84 138 133 138 201 0 46 -1
45 125 71 214 44 445 57 692 39z m-1241 -24 c25 -38 30 -108 10 -124 -29 -24
-61 1 -85 64 -25 65 -18 85 30 85 19 0 34 -8 45 -25z m2103 11 c17 -21 -24
-124 -55 -138 -37 -17 -57 6 -51 59 6 59 30 93 66 93 16 0 34 -6 40 -14z
m-1747 -46 c26 -27 29 -35 23 -67 -11 -58 -33 -92 -70 -110 -29 -14 -41 -14
-73 -5 -86 26 -106 9 -71 -60 16 -32 23 -67 27 -135 4 -81 2 -97 -17 -134 -31
-58 -22 -82 35 -104 68 -26 87 -62 79 -148 -4 -42 -2 -81 6 -104 10 -31 9 -38
-5 -49 -24 -17 -93 0 -136 35 -34 27 -94 99 -102 121 -2 6 -11 8 -21 5 -23 -9
-22 -52 3 -106 39 -86 21 -171 -46 -228 -34 -28 -45 -32 -83 -28 -57 6 -90 32
-121 92 -21 43 -24 61 -23 147 1 54 9 126 17 161 8 34 17 99 20 145 8 114 51
279 83 314 27 29 87 48 127 41 32 -6 76 21 76 46 0 32 30 46 113 51 60 4 83 9
91 22 8 13 5 21 -17 38 -35 27 -34 55 1 74 39 22 50 20 84 -14z m-458 -15 c43
-43 40 -145 -3 -145 -41 0 -97 114 -71 145 16 19 54 19 74 0z m2296 0 c26 -31
-30 -145 -71 -145 -43 0 -46 102 -3 145 20 19 58 19 74 0z m-3315 -1034 l30
-6 -32 -14 c-57 -23 -56 -85 1 -120 47 -29 191 -65 234 -58 75 13 92 63 41
122 l-32 36 51 -20 c157 -62 272 -141 272 -187 0 -51 -128 -77 -302 -62 -283
25 -602 168 -573 257 5 18 56 43 110 54 31 7 166 5 200 -2z m4575 -2 c28 -6
63 -21 77 -33 25 -22 25 -23 9 -54 -28 -55 -150 -122 -311 -171 -230 -71 -518
-70 -556 1 -22 41 107 136 271 198 l55 21 -32 -33 c-55 -56 -40 -110 34 -124
44 -8 189 26 238 56 37 23 54 63 38 89 -5 9 -24 24 -42 33 l-33 17 33 4 c70 8
170 7 219 -4z"/>
<path d="M1547 4103 c-16 -15 -6 -65 18 -89 35 -34 131 -77 240 -105 121 -32
301 -34 334 -5 31 28 26 54 -14 73 -33 16 -36 16 -57 -4 -50 -44 -131 -54
-233 -28 -136 36 -204 86 -191 140 6 24 5 25 -42 25 -27 0 -52 -3 -55 -7z"/>
<path d="M6226 4085 c14 -54 -43 -98 -177 -135 -113 -31 -200 -24 -248 21 -22
21 -23 21 -62 4 -21 -10 -39 -22 -39 -26 0 -4 11 -21 24 -36 23 -26 30 -28
113 -31 62 -3 114 2 178 17 223 50 324 109 313 182 -3 21 -9 24 -56 27 -52 3
-53 3 -46 -23z"/>
<path d="M7429 4839 c-110 -17 -199 -81 -241 -173 -22 -49 -23 -59 -20 -285 2
-268 -1 -281 -64 -281 -27 0 -44 8 -69 33 -40 40 -55 89 -55 178 0 105 50 183
155 244 16 10 16 15 -5 85 -13 41 -26 79 -30 84 -8 8 -387 -99 -403 -113 -4
-4 3 -41 16 -82 21 -69 25 -74 52 -77 l30 -3 0 -127 c1 -112 4 -136 29 -207
49 -141 118 -235 211 -283 71 -38 185 -38 265 -1 163 76 205 190 182 504 -13
182 -3 215 64 215 67 0 126 -118 110 -221 -10 -68 -58 -144 -111 -174 -25 -15
-45 -32 -45 -37 0 -12 40 -149 46 -159 3 -6 381 104 388 112 1 2 -8 39 -21 82
-22 71 -26 77 -51 77 l-27 0 3 108 c3 96 1 118 -23 188 -78 232 -212 341 -386
313z"/>
<path d="M525 4780 c-162 -29 -278 -116 -359 -269 -75 -143 -98 -337 -56 -473
67 -219 277 -357 542 -358 196 0 355 102 442 283 195 408 -12 786 -449 820
-38 3 -92 1 -120 -3z m105 -359 c158 -35 268 -87 315 -149 29 -40 31 -118 3
-166 -37 -64 -77 -81 -183 -80 -158 2 -390 81 -445 152 -68 86 -35 212 65 247
55 20 144 18 245 -4z"/>
<path d="M3772 4463 c2 -12 12 -18 28 -18 16 0 26 6 28 18 3 13 -3 17 -28 17
-25 0 -31 -4 -28 -17z"/>
<path d="M4024 4455 c-18 -7 -57 -18 -87 -25 -82 -17 -89 -32 -37 -80 40 -37
42 -41 27 -58 -9 -9 -20 -37 -26 -62 -20 -91 -87 -117 -344 -131 -175 -10
-179 -10 -201 10 -42 40 -80 21 -45 -23 11 -14 16 -26 10 -26 -5 0 -23 -12
-40 -26 -34 -28 -38 -53 -19 -116 20 -68 63 -62 60 9 -3 83 82 120 303 133
191 10 292 31 322 65 l23 26 51 -36 c71 -48 104 -55 269 -53 119 1 152 -1 185
-16 55 -24 83 -53 96 -98 9 -36 13 -39 42 -36 40 4 46 27 16 67 -21 28 -21 31
-5 53 9 13 28 39 42 58 31 43 29 84 -4 88 -32 5 -55 -16 -48 -44 8 -32 -18
-51 -48 -34 -20 10 -29 10 -54 -6 -26 -15 -37 -16 -69 -6 -21 6 -94 15 -163
20 -133 10 -192 29 -244 77 -37 34 -37 91 0 105 14 6 39 10 55 10 33 0 69 16
69 30 0 5 -32 7 -72 4 -64 -5 -71 -4 -55 9 34 28 21 40 -35 33 -43 -6 -50 -5
-40 7 7 7 30 20 53 27 40 13 55 29 47 49 -2 6 -16 4 -34 -4z"/>
<path d="M4842 4435 c-6 -13 -31 -36 -54 -52 -59 -37 -70 -51 -57 -75 6 -12 7
-30 1 -52 -18 -65 30 -78 60 -16 10 19 27 38 38 42 13 5 20 17 20 35 0 15 11
46 25 67 18 30 21 44 14 58 -14 25 -34 23 -47 -7z"/>
<path d="M3712 4293 c3 -15 13 -18 63 -18 47 0 60 3 60 15 0 11 -15 16 -63 18
-57 3 -63 1 -60 -15z"/>
<path d="M1366 4017 c-24 -59 -31 -138 -14 -159 18 -24 229 -94 373 -124 127
-27 424 -44 517 -30 48 7 53 14 83 98 l13 36 -46 -21 c-69 -32 -264 -31 -417
2 -235 50 -375 109 -449 192 l-43 48 -17 -42z"/>
<path d="M6455 4027 c-49 -78 -199 -148 -425 -200 -113 -26 -157 -31 -270 -31
-118 -1 -141 2 -182 21 l-46 21 8 -28 c4 -15 16 -44 25 -63 15 -31 23 -37 62
-43 25 -4 125 -4 222 -1 203 6 331 30 536 98 141 47 152 57 140 134 -6 36 -40
126 -47 125 -2 -1 -12 -15 -23 -33z"/>
<path d="M3895 3979 c-27 -5 -108 -10 -180 -11 -110 -3 -130 -5 -133 -19 -5
-24 85 -31 230 -17 152 14 156 14 248 -2 70 -11 159 -9 263 7 28 4 37 10 37
25 0 19 -4 20 -56 13 -78 -9 -241 -7 -289 5 -46 11 -52 11 -120 -1z"/>
<path d="M3878 3823 c-10 -2 -18 -14 -18 -25 0 -18 4 -20 31 -14 17 3 78 6
135 6 82 0 104 3 104 14 0 8 -7 17 -16 20 -18 7 -210 6 -236 -1z"/>
<path d="M1327 3775 c-18 -17 -22 -52 -9 -71 20 -32 161 -82 307 -111 72 -14
143 -18 353 -18 l264 0 19 24 c34 42 15 47 -178 54 -274 10 -488 45 -625 102
-85 36 -111 40 -131 20z"/>
<path d="M6431 3764 c-135 -62 -370 -102 -648 -111 -150 -5 -183 -9 -188 -21
-3 -9 3 -25 15 -36 20 -20 31 -21 283 -21 209 0 280 4 352 18 114 22 234 62
277 90 38 26 48 66 23 91 -22 22 -50 19 -114 -10z"/>
<path d="M192 3712 c-66 -24 -124 -79 -152 -143 -37 -87 -43 -180 -35 -542 l7
-337 89 0 88 0 3 73 3 72 310 5 c171 3 316 4 323 2 8 -3 12 -27 12 -73 l0 -69
91 0 92 0 -5 310 c-3 171 -7 312 -9 314 -2 2 -44 1 -92 -2 l-88 -5 6 -52 c12
-94 11 -95 -121 -95 l-114 0 0 89 c0 244 -53 387 -165 441 -64 31 -174 36
-243 12z m176 -329 c35 -21 52 -73 52 -153 l0 -70 -121 0 -121 0 4 89 c3 78 6
93 27 115 42 45 106 52 159 19z"/>
<path d="M6990 3225 l0 -505 220 0 220 0 0 89 0 89 -72 7 c-40 4 -92 16 -115
26 -61 29 -73 62 -73 208 l0 121 125 0 125 0 0 -35 c0 -44 -29 -64 -104 -72
l-56 -6 0 -83 0 -84 245 0 245 0 0 85 0 85 -32 0 c-18 0 -50 5 -70 10 -31 9
-39 17 -48 48 -5 20 -10 40 -10 45 0 4 52 7 116 7 l116 0 -4 -122 c-6 -181
-28 -212 -163 -231 l-75 -11 0 -88 0 -88 210 0 210 0 0 505 0 505 -90 0 -89 0
-3 -67 -3 -68 -322 -3 -323 -2 0 70 0 70 -90 0 -90 0 0 -505z"/>
<path d="M1306 3614 c-9 -8 -16 -29 -16 -45 0 -23 7 -32 39 -48 143 -74 478
-99 792 -61 111 14 119 17 119 45 0 29 -19 34 -85 22 -27 -5 -126 -10 -220
-10 -197 -1 -330 20 -493 78 -111 40 -115 41 -136 19z"/>
<path d="M6423 3594 c-156 -57 -291 -78 -488 -77 -93 0 -195 5 -225 11 -58 10
-76 8 -83 -12 -15 -39 26 -50 270 -67 255 -19 487 5 628 65 44 19 55 31 55 62
0 24 -29 54 -51 53 -8 0 -55 -16 -106 -35z"/>
<path d="M3815 3540 c-15 -25 12 -30 151 -30 133 0 145 1 142 18 -3 15 -19 17
-145 20 -89 2 -144 -1 -148 -8z"/>
<path d="M1298 3449 c-25 -14 -24 -75 1 -89 75 -40 358 -60 561 -41 229 23
353 49 369 80 20 37 -1 43 -90 26 -185 -36 -484 -30 -711 16 -110 22 -107 22
-130 8z"/>
<path d="M6425 3440 c-209 -43 -440 -51 -630 -24 -156 23 -160 23 -160 -1 0
-29 53 -51 165 -69 239 -39 447 -46 617 -20 149 22 173 33 173 81 0 28 -26 53
-53 52 -12 -1 -62 -9 -112 -19z"/>
<path d="M3927 3404 c-4 -4 -7 -14 -7 -21 0 -10 11 -13 43 -11 29 2 42 8 42
18 0 16 -64 27 -78 14z"/>
<path d="M2100 3314 c-30 -7 -109 -21 -175 -30 -145 -19 -410 -14 -522 11 -79
17 -106 11 -118 -25 -11 -35 18 -65 76 -80 87 -21 325 -24 469 -6 135 18 340
61 380 80 17 7 25 19 25 36 0 22 -4 25 -40 27 -22 1 -65 -5 -95 -13z"/>
<path d="M5634 3315 c-17 -44 10 -57 197 -95 192 -39 337 -53 492 -47 212 8
282 35 258 100 -14 36 -37 40 -122 21 -165 -36 -464 -29 -674 17 -107 23 -144
24 -151 4z"/>
<path d="M2066 3199 c-203 -54 -443 -72 -625 -48 -101 14 -131 5 -131 -39 0
-17 9 -37 21 -48 18 -17 41 -19 173 -22 201 -5 453 31 666 94 58 17 91 54 70
79 -17 20 -47 18 -174 -16z"/>
<path d="M5633 3223 c-20 -8 -15 -38 10 -60 25 -23 162 -60 359 -95 99 -18
160 -23 319 -23 180 0 199 2 218 19 25 23 27 58 4 81 -14 14 -27 15 -87 8
-106 -12 -390 -9 -476 6 -41 7 -126 26 -189 42 -114 29 -135 32 -158 22z"/>
<path d="M2155 3104 c-175 -63 -388 -94 -640 -94 -170 0 -185 -4 -185 -46 0
-42 34 -54 155 -54 329 0 718 84 772 166 12 19 12 24 -2 38 -20 20 -16 20
-100 -10z"/>
<path d="M5618 3119 c-96 -56 211 -168 542 -198 63 -6 165 -11 226 -11 95 0
115 3 135 19 20 16 22 23 14 47 l-10 29 -220 6 c-274 8 -403 28 -582 90 -46
16 -84 29 -85 29 -2 0 -11 -5 -20 -11z"/>
<path d="M2125 2965 c-156 -52 -262 -67 -513 -72 -220 -5 -223 -6 -238 -29
-18 -26 -7 -56 27 -75 11 -6 88 -13 170 -16 l149 -6 11 -41 c5 -23 17 -67 26
-98 l16 -58 41 6 c22 4 59 10 81 13 l40 6 5 99 5 99 90 22 c119 30 266 86 279
107 7 11 7 26 0 45 -8 24 -15 28 -49 30 -23 1 -83 -13 -140 -32z m-221 -257
c3 -39 3 -75 -1 -79 -5 -3 -29 -10 -55 -13 l-47 -7 -10 38 c-6 21 -13 57 -17
80 l-6 42 38 4 c99 10 90 15 98 -65z"/>
<path d="M5560 2981 c-17 -32 -12 -60 15 -77 33 -21 206 -79 283 -94 l62 -13
0 -98 c0 -112 -10 -101 105 -118 33 -5 64 -6 68 -1 5 4 19 48 31 96 l22 89
153 7 c171 8 201 18 201 66 0 49 -11 52 -196 52 -245 0 -489 37 -626 94 -53
22 -105 21 -118 -3z m538 -216 c5 -4 -20 -133 -29 -146 -5 -8 -21 -9 -55 -3
l-49 9 -3 55 c-2 29 0 65 3 78 6 23 8 24 68 17 34 -4 63 -8 65 -10z"/>
<path d="M2195 2189 c-198 -29 -374 -146 -457 -306 -62 -117 -82 -207 -82
-363 0 -217 46 -341 170 -466 122 -124 266 -177 479 -178 132 -1 195 11 294
55 35 16 66 29 68 29 2 0 11 -16 19 -35 l14 -35 100 0 100 0 0 233 c0 168 3
236 12 245 7 7 39 12 75 12 l63 0 0 105 0 105 -355 0 -355 0 0 -105 0 -105 75
0 c92 0 95 -4 95 -130 0 -88 -1 -93 -29 -121 -43 -42 -142 -44 -228 -3 -59 28
-103 86 -129 169 -22 67 -30 320 -15 411 23 129 88 227 170 256 59 20 159 16
207 -9 91 -48 164 -175 164 -284 l0 -39 110 0 110 0 0 275 0 275 -103 0 -104
0 -13 -40 c-7 -22 -16 -39 -19 -37 -154 85 -276 109 -436 86z"/>
<path d="M2990 2056 l0 -104 74 -4 c63 -3 79 -7 101 -28 15 -14 96 -136 181
-271 l154 -247 0 -115 c0 -64 -4 -127 -10 -141 -9 -25 -12 -26 -95 -26 l-85 0
0 -105 0 -105 385 0 385 0 0 105 0 105 -83 0 c-51 0 -88 5 -95 12 -8 8 -12 55
-12 146 l0 134 160 253 c89 139 168 259 176 266 9 7 45 15 80 17 l64 4 0 104
0 104 -285 0 -285 0 0 -105 0 -105 66 0 c59 0 65 -2 59 -17 -8 -23 -149 -242
-155 -242 -7 -1 -160 238 -160 249 0 6 29 10 65 10 l65 0 0 105 0 105 -375 0
-375 0 0 -104z"/>
<path d="M4530 2055 l0 -105 78 0 c42 0 83 -4 90 -8 9 -7 12 -96 10 -413 l-3
-404 -87 -3 -88 -3 0 -104 0 -105 290 0 290 0 0 105 0 105 -65 0 c-53 0 -66 3
-75 19 -6 12 -10 131 -10 318 0 165 4 291 9 283 5 -8 59 -198 121 -422 l114
-408 152 0 153 0 10 38 c6 20 60 208 120 417 l110 380 0 -301 c1 -234 -2 -304
-12 -312 -7 -6 -40 -12 -72 -14 l-60 -3 -3 -102 -3 -103 356 0 355 0 0 105 0
105 -75 0 c-72 0 -76 1 -85 26 -13 34 -13 744 0 778 9 25 13 26 85 26 l75 0 0
105 0 105 -343 0 -344 0 -93 -322 c-51 -178 -96 -327 -100 -331 -4 -4 -49 141
-100 323 l-94 330 -353 0 -353 0 0 -105z"/>
</g>
</svg>
