<?xml version="1.0" standalone="no"?>
<!DOCTYPE svg PUBLIC "-//W3C//DTD SVG 20010904//EN"
 "http://www.w3.org/TR/2001/REC-SVG-20010904/DTD/svg10.dtd">
<svg version="1.0" xmlns="http://www.w3.org/2000/svg"
 width="512.000000pt" height="512.000000pt" viewBox="0 0 512.000000 512.000000"
 preserveAspectRatio="xMidYMid meet">

<g transform="translate(0.000000,512.000000) scale(0.100000,-0.100000)"
fill="#000000" stroke="none">
<path d="M330 4139 c-153 -30 -290 -170 -320 -328 -6 -34 -10 -485 -10 -1255
0 -1303 -1 -1268 55 -1368 62 -111 183 -192 313 -209 88 -11 4296 -11 4384 0
130 17 251 98 313 209 57 102 56 63 53 1405 l-3 1232 -21 52 c-46 111 -136
201 -247 247 l-52 21 -2210 1 c-1239 1 -2230 -2 -2255 -7z m4416 -314 c68 -28
64 44 64 -1264 0 -711 -4 -1190 -9 -1204 -6 -14 -20 -35 -32 -46 l-23 -21
-2186 0 -2186 0 -23 21 c-12 11 -26 32 -32 46 -5 14 -9 493 -9 1204 0 1303 -3
1236 62 1264 50 22 4322 22 4374 0z"/>
<path d="M1481 3494 c-234 -63 -404 -288 -402 -534 1 -125 30 -219 100 -326
l21 -30 -68 -39 c-41 -24 -105 -77 -167 -140 -146 -146 -204 -256 -205 -386
-1 -176 106 -336 267 -401 l58 -23 550 0 550 0 66 31 c197 93 294 304 235 507
-34 118 -186 300 -326 391 -41 27 -79 53 -84 57 -4 4 8 34 27 66 58 95 80 173
81 288 0 72 -5 115 -18 155 -66 196 -199 329 -385 384 -68 20 -225 20 -300 0z
m255 -315 c61 -29 110 -88 130 -155 58 -202 -157 -381 -344 -285 -48 25 -97
76 -116 123 -34 79 -11 203 47 267 62 67 199 91 283 50z m6 -790 c169 -34 321
-131 407 -259 52 -79 55 -124 12 -172 l-29 -33 -486 -3 c-422 -2 -490 -1 -516
13 -34 18 -60 61 -60 102 0 53 108 186 206 253 128 88 319 129 466 99z"/>
<path d="M3208 3301 c-146 -30 -176 -210 -48 -285 34 -21 48 -21 610 -21 562
0 576 0 610 21 107 63 107 205 0 268 -34 20 -50 21 -585 23 -302 0 -566 -2
-587 -6z"/>
<path d="M3186 2710 c-122 -37 -143 -213 -34 -280 32 -19 52 -20 618 -20 566
0 586 1 618 20 53 32 74 75 69 143 -3 49 -8 62 -37 92 -19 19 -50 40 -70 45
-44 12 -1123 12 -1164 0z"/>
<path d="M3160 2107 c-57 -30 -82 -76 -77 -143 4 -60 32 -105 81 -128 30 -14
90 -16 493 -16 416 0 461 2 493 18 108 54 108 217 -1 272 -36 19 -60 20 -492
20 -453 0 -454 0 -497 -23z"/>
</g>
</svg>
