<?xml version="1.0" standalone="no"?>
<!DOCTYPE svg PUBLIC "-//W3C//DTD SVG 20010904//EN"
 "http://www.w3.org/TR/2001/REC-SVG-20010904/DTD/svg10.dtd">
<svg version="1.0" xmlns="http://www.w3.org/2000/svg"
 width="512.000000pt" height="512.000000pt" viewBox="0 0 512.000000 512.000000"
 preserveAspectRatio="xMidYMid meet">

<g transform="translate(0.000000,512.000000) scale(0.100000,-0.100000)"
fill="#000000" stroke="none">
<path d="M2330 5110 c-494 -48 -950 -230 -1350 -538 -195 -150 -448 -432 -594
-662 -63 -99 -186 -351 -230 -471 -49 -134 -102 -340 -128 -499 -31 -195 -31
-565 0 -760 45 -276 116 -498 237 -745 132 -269 269 -460 489 -681 221 -220
412 -357 681 -489 247 -121 469 -192 745 -237 195 -31 565 -31 760 0 276 45
498 116 745 237 269 132 460 269 681 489 220 221 357 412 489 681 88 179 132
296 180 476 63 240 78 371 78 649 0 278 -15 409 -78 649 -48 180 -92 297 -180
476 -132 269 -269 460 -489 681 -221 220 -412 357 -681 489 -246 121 -474 193
-740 235 -147 23 -475 34 -615 20z m585 -339 c633 -106 1170 -457 1523 -995
170 -258 286 -563 339 -891 24 -153 24 -497 0 -650 -106 -651 -457 -1196
-1001 -1553 -258 -170 -563 -286 -891 -339 -153 -24 -497 -24 -650 0 -652 106
-1195 455 -1553 1001 -170 258 -286 563 -339 891 -24 153 -24 497 0 650 106
651 457 1196 1001 1553 298 196 666 322 1036 356 108 10 418 -4 535 -23z"/>
<path d="M1695 3826 c-94 -41 -124 -168 -58 -247 49 -58 58 -59 455 -60 310 0
373 -3 429 -17 127 -33 249 -132 302 -244 l25 -53 -573 -5 c-560 -5 -574 -5
-601 -26 -53 -39 -69 -71 -69 -134 0 -63 16 -95 69 -134 27 -21 41 -21 601
-26 l573 -5 -25 -53 c-53 -112 -175 -211 -302 -244 -56 -14 -119 -17 -429 -17
-316 -1 -369 -3 -399 -17 -71 -34 -109 -122 -84 -195 8 -25 196 -219 683 -706
730 -729 692 -696 785 -678 49 9 109 69 118 118 18 92 37 68 -528 635 l-522
522 162 0 c178 0 267 13 382 56 227 84 422 302 481 537 l12 45 118 4 c128 3
149 11 194 72 29 39 29 133 0 172 -45 61 -66 69 -193 72 l-118 4 -17 60 c-17
60 -67 167 -105 223 l-21 30 189 5 c171 5 192 7 217 26 53 39 69 71 69 134 0
63 -16 95 -69 134 -27 21 -36 21 -874 23 -689 2 -853 0 -877 -11z"/>
</g>
</svg>
